<?xml version="1.0" encoding="UTF-8"?>
<svg id="Layer_2" data-name="Layer 2" xmlns="http://www.w3.org/2000/svg" version="1.1" viewBox="0 0 500 300">
  <defs>
    <style>
      .cls-1 {
        fill: #1f008b;
      }

      .cls-1, .cls-2 {
        stroke-width: 0px;
      }

      .cls-2 {
        fill: #fff;
      }
    </style>
  </defs>
  <rect class="cls-1" y="0" width="500" height="300"/>
  <g>
    <path class="cls-2" d="M47.3,174.4v-.4c0-6,3.6-11.3,9.1-13.6,1.8-.8,3.7-1.1,5.7-1.1h4.8v5l3.3-1.9,2.9-1.7,2.5-1.4,3.6-2.1-3.6-2.1-2.5-1.4-6.1-3.6v5.1h-6.9c-1.2,0-2.5-.1-3.7-.4-7-1.5-12.4-7.3-13.4-14.3-.1-.9-.2-1.7-.2-2.6s0-1.7.2-2.6c1-7.1,6.5-12.9,13.5-14.3,1.2-.2,2.4-.4,3.6-.4h25.7v.4c0,6-3.6,11.3-9.1,13.6-1.8.8-3.8,1.1-5.7,1.1h-4.8v-5.1l-6.1,3.6-2.5,1.4-3.6,2.1,3.6,2.1,2.5,1.4,3.6,2.1,2.5,1.5v-5h6.9c1.3,0,2.5.1,3.7.4,7,1.5,12.4,7.3,13.4,14.3.1.8.2,1.7.2,2.5s0,1.7-.2,2.6c-1.1,7.1-6.5,12.9-13.5,14.4-1.2.2-2.4.4-3.6.4h-25.8Z"/>
    <path class="cls-2" d="M123.3,134.3c.6-.3,1.5-.6,2.7-.9,1.2-.3,2.3-.5,3.5-.5,2.1,0,3.9.3,5.2.9,1.4.6,2.2,1.6,2.5,2.8,1,3.4,1.9,6.4,2.7,9.2.8,2.8,1.6,5.5,2.3,8.1.7,2.6,1.5,5.4,2.2,8.2h.4c.8-4.8,1.5-9.3,2.1-13.6s1.2-8.6,1.8-12.8c.6-4.2,1.1-8.6,1.6-13,1.9-1,3.8-1.5,5.8-1.5s3.5.4,4.8,1.2c1.3.8,2,2.1,2,4s-.1,2.9-.4,5.2c-.3,2.3-.7,4.9-1.1,7.8-.5,2.9-1,5.9-1.6,9.1s-1.2,6.2-1.9,9.2-1.3,5.7-2.1,8.1-1.4,4.4-1.9,5.9c-.8.6-2,1.2-3.7,1.7-1.6.5-3.4.7-5.1.7s-4.2-.3-5.9-1-2.6-1.6-3-2.7c-.6-1.6-1.2-3.6-1.9-5.8-.7-2.2-1.4-4.7-2.2-7.3-.7-2.6-1.5-5.4-2.2-8.2-.7,2.8-1.4,5.6-2.1,8.4-.7,2.8-1.4,5.4-2.1,7.9-.7,2.4-1.3,4.6-1.9,6.3-.7.6-1.8,1.2-3.3,1.7-1.5.5-3.1.7-4.9.7s-4.1-.3-5.9-1c-1.8-.7-3-1.6-3.5-2.6-.6-1.3-1.2-3.3-2-5.9-.8-2.6-1.6-5.7-2.4-9.1-.8-3.4-1.6-7.1-2.3-10.8-.7-3.8-1.4-7.4-2.1-11-.6-3.6-1.1-6.8-1.4-9.6.7-.6,1.7-1.2,2.9-1.8,1.2-.6,2.6-.8,4.1-.8s3.4.4,4.6,1.2c1.2.8,1.9,2.2,2.3,4.1.9,5.3,1.7,9.8,2.3,13.5s1.1,6.9,1.5,9.6c.4,2.7.8,5,1.2,7,.3,2,.7,3.8,1.1,5.4h.4c.6-2.3,1.1-4.5,1.6-6.6s1.1-4.1,1.6-6.1c.6-2.1,1.2-4.3,1.8-6.8.6-2.4,1.3-5.3,2-8.5h0Z"/>
    <path class="cls-2" d="M172.1,153.6v-32.1c.6-.1,1.4-.3,2.6-.4,1.2-.2,2.3-.3,3.5-.3,2.4,0,4.2.4,5.3,1.3,1.1.8,1.6,2.5,1.6,4.9v26.7h-13ZM185.1,137.4v36c-.6.2-1.4.3-2.5.5s-2.3.2-3.5.2c-2.6,0-4.4-.5-5.4-1.4s-1.6-2.5-1.6-4.7v-30.6h13Z"/>
    <path class="cls-2" d="M197.2,156.8v-30.6c0-1.1.3-1.9.9-2.6s1.4-1.1,2.5-1.4c1.9-.7,4.1-1.2,6.8-1.4s5-.4,7.1-.4c7.7,0,13.5,1.6,17.5,4.9,4,3.3,5.9,7.7,5.9,13.4s-.9,6.8-2.6,9.6c-1.7,2.7-4.2,4.9-7.5,6.4-3.2,1.5-7.1,2.3-11.7,2.3h-18.9ZM210.2,151v22.3c-.6.2-1.4.3-2.5.5s-2.3.2-3.5.2c-2.6,0-4.4-.5-5.4-1.4-1.1-.9-1.6-2.5-1.6-4.7v-16.9h13ZM215.2,146.5c2.9,0,5.2-.7,6.9-2.1s2.6-3.3,2.6-5.9-.8-4.5-2.4-5.9c-1.6-1.3-3.9-2-7-2s-2,0-2.9,0c-.8,0-1.6.2-2.4.3v15.4h5.1Z"/>
    <path class="cls-2" d="M246.6,157.8v-29.3c0-2.1.6-3.8,1.9-5,1.2-1.2,2.9-1.8,5-1.8s2.3,0,3.4.3c1,.2,1.8.3,2.4.4v35.4h-12.6ZM259.2,137.3v35.6c-.5.1-1.3.3-2.4.4-1.1.2-2.2.3-3.4.3-2.1,0-3.8-.6-5-1.9s-1.9-2.9-1.9-5v-29.4h12.6ZM253.5,121.7h28.2c.3.5.6,1.2.9,2.1.3.8.4,1.8.4,2.8,0,1.8-.4,3.2-1.2,4.1-.8.9-1.9,1.3-3.3,1.3h-25v-10.2h0ZM253.5,141.9h25.8c.3.6.6,1.3.9,2.1s.4,1.8.4,2.8c0,1.8-.4,3.2-1.2,4s-1.9,1.3-3.2,1.3h-22.6v-10.2h0ZM253.5,163.3h28.6c.3.5.6,1.2.9,2.1.3.9.4,1.9.4,2.9,0,1.8-.4,3.1-1.2,3.9-.8.9-1.9,1.3-3.2,1.3h-25.4v-10.2h0Z"/>
    <path class="cls-2" d="M293,153.6v-32.1c.6-.1,1.4-.3,2.6-.4,1.2-.2,2.3-.3,3.4-.3,2.5,0,4.2.4,5.3,1.3s1.7,2.5,1.7,4.9v26.7h-13,0ZM306,137.5v35.4l-6.1.7c-2.1,0-3.8-.6-5-1.9s-1.9-2.9-1.9-5v-29.1h13ZM300,163.1h26.8c.4.5.7,1.2,1,2.1.3.9.4,1.9.4,2.9,0,1.8-.4,3.2-1.2,4.1-.8.9-1.9,1.4-3.3,1.4h-23.7v-10.5h0Z"/>
    <path class="cls-2" d="M336.6,153.6v-32.1c.6-.1,1.4-.3,2.6-.4,1.2-.2,2.3-.3,3.5-.3,2.5,0,4.2.4,5.3,1.3,1.1.8,1.6,2.5,1.6,4.9v26.7h-13,0ZM349.6,137.4v36c-.6.2-1.4.3-2.5.5s-2.3.2-3.5.2c-2.6,0-4.4-.5-5.4-1.4-1-.9-1.6-2.5-1.6-4.7v-30.6h13,0Z"/>
    <path class="cls-2" d="M407.2,146.3v25.5c-.7.7-1.7,1.2-3,1.7-1.3.4-2.9.6-4.7.6s-3.7-.3-5.4-.9-3-2-4.1-4.2l-10.4-19.7c-.6-1.2-1.2-2.5-1.9-3.8s-1.2-2.5-1.8-3.8c-.6-1.3-1.1-2.6-1.7-3.9l-12.4,2.8v-16.7c.7-1,1.8-1.7,3.2-2.2s3-.8,4.6-.8,3.7.3,5.4.9c1.7.6,3,2,4.1,4.1l10.5,19.8c.6,1.2,1.2,2.4,1.9,3.7.6,1.3,1.2,2.6,1.8,3.8s1.1,2.6,1.6,3.9l12.3-2.8v-8.1h0ZM373.5,136.2c.2,2.4.4,4.8.5,7.2.1,2.4.2,4.7.2,7v23.1c-.5.1-1.2.2-2.4.4-1.1.1-2.2.2-3.4.2-2.5,0-4.3-.4-5.2-1.3-1-.9-1.5-2.4-1.5-4.6v-31.9h11.8c0,0,0,0,0,0ZM395.4,158.6c-.4-4.2-.6-8.2-.6-12s0-7.4,0-10.8v-14.4c.5-.1,1.3-.3,2.4-.4,1.1-.2,2.2-.3,3.4-.3,2.5,0,4.2.4,5.2,1.3s1.5,2.4,1.5,4.6v31.8l-11.8.2h0Z"/>
    <path class="cls-2" d="M419.3,153.5v-32c.6-.1,1.4-.3,2.6-.4,1.2-.2,2.3-.3,3.4-.3,2.5,0,4.2.4,5.3,1.3s1.7,2.5,1.7,4.9v26.6h-13,0ZM432.3,137.3v36c-.6.2-1.4.3-2.5.5s-2.3.3-3.5.3c-2.6,0-4.4-.5-5.4-1.4s-1.6-2.5-1.6-4.7v-30.7h13,0ZM424.7,151.1l26.8-30c3.2,0,5.6.6,7,1.9,1.5,1.3,2.2,2.8,2.2,4.5s-.3,2.5-1,3.7c-.7,1.1-1.7,2.4-3.1,3.8l-15.5,15.4-16.5.7h0ZM440.8,144.2c4.8,5.1,9,9.6,12.8,13.6s6.8,7.2,9.1,9.6c0,2.2-.7,3.9-2.1,5.1-1.4,1.2-3,1.8-4.9,1.8s-3.7-.5-5-1.5-2.5-2.2-3.8-3.6l-20.6-23.2,14.4-1.7h0Z"/>
  </g>
  <path class="cls-2" d="M85.3,121c0,6-3.7,11.1-8.8,13.2-1.7.7-3.6,1.1-5.6,1.1h-4.4v-5.4l-3.9,2.3-2.9,1.7-2.5,1.4-4.3,2.5,4.3,2.5,2.5,1.4,3.6,2.1,3.2,1.8v-5.4h6.5c1.2,0,2.4.1,3.6.4,6.8,1.5,12,7,13.1,14,.1.8.2,1.6.2,2.5s0,1.7-.2,2.5c-1,7-6.3,12.6-13.2,14-1.1.2-2.3.4-3.5.4h-25.3c0-6,3.7-11.1,8.8-13.2,1.7-.7,3.6-1.1,5.5-1.1h4.4v5.4l3.9-2.3,2.9-1.7,2.5-1.4,4.3-2.5-4.3-2.5-2.5-1.4-3.6-2.1-3.2-1.9v5.4h-6.5c-1.2,0-2.4-.1-3.6-.4-6.8-1.5-12-7-13.1-14-.1-.8-.2-1.6-.2-2.5s0-1.7.2-2.5c1-7,6.3-12.6,13.2-14,1.1-.2,2.3-.4,3.5-.4h25.3M86.2,120.1h-26.2c-1.2,0-2.5.1-3.7.4-7.2,1.5-12.8,7.4-13.8,14.7-.1.9-.2,1.7-.2,2.6s0,1.7.2,2.6c.5,3.6,2.1,6.9,4.6,9.5,2.5,2.6,5.6,4.4,9.1,5.2,1.2.3,2.5.4,3.8.4h7.4v-4.7l1.9,1.1,3.6,2.1,2.5,1.4,3,1.7-3,1.7-2.5,1.4-2.9,1.7-2.6,1.5v-4.7h-5.3c-2,0-4,.4-5.9,1.2-5.7,2.4-9.4,7.9-9.4,14.1v.9h26.2c1.3,0,2.5-.1,3.7-.4,7.2-1.5,12.8-7.4,13.8-14.7.1-.8.2-1.7.2-2.6s0-1.8-.2-2.6c-.5-3.6-2.1-6.9-4.6-9.5-2.5-2.6-5.6-4.4-9.2-5.2-1.2-.3-2.5-.4-3.8-.4h-7.4v4.7l-1.9-1.1-3.6-2.1-2.5-1.4-3-1.7,3-1.7,2.5-1.4,2.9-1.7,2.6-1.5v4.7h5.3c2,0,4-.4,5.9-1.2,5.7-2.4,9.4-7.9,9.4-14.1v-.9h0Z"/>
</svg>